<svg width="16" height="16" viewBox="0 0 16 16" fill="none" xmlns="http://www.w3.org/2000/svg">
<g clip-path="url(#clip0_20071_106517)">
<path d="M3.0026 14.6654V11.332M3.0026 4.66536V1.33203M1.33594 2.9987H4.66927M1.33594 12.9987H4.66927M8.66927 1.9987L7.51315 5.00461C7.32514 5.49343 7.23114 5.73784 7.08496 5.94342C6.9554 6.12563 6.7962 6.28482 6.61399 6.41438C6.40841 6.56057 6.164 6.65457 5.67518 6.84258L2.66927 7.9987L5.67518 9.15482C6.164 9.34282 6.40841 9.43683 6.614 9.58301C6.7962 9.71257 6.9554 9.87177 7.08496 10.054C7.23114 10.2596 7.32514 10.504 7.51315 10.9928L8.66927 13.9987L9.82539 10.9928C10.0134 10.504 10.1074 10.2596 10.2536 10.054C10.3831 9.87177 10.5423 9.71257 10.7245 9.58301C10.9301 9.43683 11.1745 9.34282 11.6634 9.15482L14.6693 7.9987L11.6634 6.84258C11.1745 6.65457 10.9301 6.56057 10.7245 6.41438C10.5423 6.28482 10.3831 6.12563 10.2536 5.94342C10.1074 5.73784 10.0134 5.49343 9.82539 5.00461L8.66927 1.9987Z" stroke="black" stroke-linecap="round" stroke-linejoin="round"/>
</g>
<defs>
<clipPath id="clip0_20071_106517">
<rect width="16" height="16" fill="white"/>
</clipPath>
</defs>
</svg>
